<svg xmlns="http://www.w3.org/2000/svg" width="1500" height="2100" viewBox="0 0 1500 2100"><defs><linearGradient id="b" y2="1"><stop stop-color="#152D32"/><stop offset=".52" stop-color="#36413B"/><stop offset="1" stop-color="#101A1D"/></linearGradient><radialGradient id="f"><stop stop-color="#CDE8D7" stop-opacity=".36"/><stop offset="1" stop-color="#CDE8D7" stop-opacity="0"/></radialGradient></defs><rect width="1500" height="2100" rx="72" fill="url(#b)"/><ellipse cx="750" cy="1050" rx="650" ry="760" fill="url(#f)"/><rect x="48" y="48" width="1404" height="2004" rx="64" fill="none" stroke="#91B49C" stroke-width="24"/><rect x="96" y="96" width="1308" height="1908" rx="38" fill="none" stroke="#D6C895" stroke-width="7"/><path d="M260 1730V1430l170-130l160 130v300m320 0v-420l190-150l190 150v420" fill="#172326" stroke="#7E917E" stroke-width="8" opacity=".92"/><g fill="#E3C86E" opacity=".75"><rect x="380" y="1450" width="55" height="75"/><rect x="1030" y="1380" width="60" height="82"/><rect x="1160" y="1380" width="60" height="82"/></g><path d="M110 1630q250-90 480 0t430 0t370 10v250H110z" fill="#DDE9E0" opacity=".14"/><path d="M145 340h1210" stroke="#D6C895" stroke-width="6" opacity=".65"/></svg>
