<svg xmlns="http://www.w3.org/2000/svg" width="1500" height="2100" viewBox="0 0 1500 2100"><defs><linearGradient id="b" y2="1"><stop stop-color="#16082E"/><stop offset=".48" stop-color="#4C176C"/><stop offset="1" stop-color="#120721"/></linearGradient><radialGradient id="a"><stop stop-color="#FFCF5C" stop-opacity=".5"/><stop offset=".55" stop-color="#9A4DFF" stop-opacity=".18"/><stop offset="1" stop-color="#6B2D90" stop-opacity="0"/></radialGradient></defs><rect width="1500" height="2100" rx="72" fill="url(#b)"/><ellipse cx="750" cy="980" rx="680" ry="800" fill="url(#a)"/><rect x="42" y="42" width="1416" height="2016" rx="68" fill="none" stroke="#E7B94E" stroke-width="28"/><rect x="88" y="88" width="1324" height="1924" rx="46" fill="none" stroke="#B76BFF" stroke-width="10"/><rect x="112" y="112" width="1276" height="1876" rx="36" fill="none" stroke="#FFE5A3" stroke-opacity=".72" stroke-width="4"/><g fill="#FFD76A"><circle cx="190" cy="240" r="10"/><circle cx="1310" cy="240" r="10"/><circle cx="210" cy="1420" r="8"/><circle cx="1280" cy="1370" r="8"/><path d="M750 80l18 48l48 18l-48 18l-18 48l-18-48l-48-18l48-18z"/></g><path d="M110 1770q170-180 350-40q140-180 290 0q170-210 340 0q150-150 300 30v240H110z" fill="#220D38" opacity=".94"/><path d="M145 340h1210" stroke="#E7B94E" stroke-width="8" opacity=".8"/></svg>
