<svg xmlns="http://www.w3.org/2000/svg" width="1500" height="2100" viewBox="0 0 1500 2100"><defs><linearGradient id="b" y2="1"><stop stop-color="#0B153D"/><stop offset=".55" stop-color="#382061"/><stop offset="1" stop-color="#080C25"/></linearGradient><radialGradient id="m"><stop stop-color="#FFF7D6"/><stop offset=".65" stop-color="#BBD4FF"/><stop offset="1" stop-color="#8A75CE" stop-opacity="0"/></radialGradient></defs><rect width="1500" height="2100" rx="72" fill="url(#b)"/><circle cx="750" cy="850" r="580" fill="url(#m)" opacity=".48"/><circle cx="1120" cy="520" r="170" fill="#FFF6D0" opacity=".86"/><rect x="56" y="56" width="1388" height="1988" rx="58" fill="none" stroke="#8EBBFF" stroke-width="20"/><rect x="92" y="92" width="1316" height="1916" rx="44" fill="none" stroke="#E7DDFF" stroke-opacity=".6" stroke-width="5"/><g fill="#11142E" opacity=".7"><path d="M250 620q45-55 90 0q45-55 90 0q-90-20-180 0z"/><path d="M980 720q35-45 70 0q35-45 70 0q-70-15-140 0z"/><path d="M320 900q30-40 60 0q30-40 60 0q-60-14-120 0z"/></g><path d="M100 1720q180-170 360-30q150-160 300 0q190-190 360 0q140-120 280 35v275H100z" fill="#11142E" opacity=".92"/><path d="M145 340h1210" stroke="#A994FF" stroke-width="6" opacity=".7"/></svg>
