<svg xmlns="http://www.w3.org/2000/svg" width="1500" height="2100" viewBox="0 0 1500 2100"><defs><linearGradient id="b" x2="0" y2="1"><stop stop-color="#241033"/><stop offset=".55" stop-color="#6B2D18"/><stop offset="1" stop-color="#180D20"/></linearGradient><radialGradient id="g"><stop stop-color="#FFB347" stop-opacity=".45"/><stop offset="1" stop-color="#FF7A00" stop-opacity="0"/></radialGradient></defs><rect width="1500" height="2100" rx="72" fill="url(#b)"/><ellipse cx="750" cy="940" rx="620" ry="720" fill="url(#g)"/><rect x="56" y="56" width="1388" height="1988" rx="58" fill="none" stroke="#F4A340" stroke-width="20"/><rect x="92" y="92" width="1316" height="1916" rx="44" fill="none" stroke="#FFE2A8" stroke-opacity=".65" stroke-width="5"/><path d="M120 1700C250 1570 330 1680 430 1605C520 1538 610 1650 720 1580C830 1510 920 1650 1030 1580C1150 1500 1250 1600 1380 1690V1990H120Z" fill="#2A1523" opacity=".9"/><g fill="#F28C28" stroke="#7E3515" stroke-width="8"><ellipse cx="245" cy="1770" rx="115" ry="95"/><ellipse cx="1255" cy="1770" rx="115" ry="95"/><ellipse cx="390" cy="1840" rx="85" ry="70"/><ellipse cx="1110" cy="1840" rx="85" ry="70"/></g><g fill="#D6A447"><path d="M220 1650l28-85 25 87zM1220 1652l28-88 25 88z"/></g><path d="M145 340h1210" stroke="#F4A340" stroke-width="6" opacity=".7"/></svg>
